<!DOCTYPE svg PUBLIC "-//W3C//DTD SVG 20010904//EN" "http://www.w3.org/TR/2001/REC-SVG-20010904/DTD/svg10.dtd">
<svg version="1.0" xmlns="http://www.w3.org/2000/svg" width="70px" height="70px" viewBox="0 0 700 700" preserveAspectRatio="xMidYMid meet">
<g id="layer101" fill="#e22727" stroke="none">
 <path d="M177 634 c-4 -4 -7 -29 -7 -56 0 -44 2 -48 24 -48 13 0 29 -7 36 -15 7 -8 18 -15 26 -15 22 0 44 -30 44 -61 0 -16 -4 -29 -10 -29 -16 0 -80 -61 -96 -91 -8 -16 -19 -29 -25 -29 -6 0 -26 -7 -45 -16 -37 -18 -68 -81 -62 -130 2 -25 8 -29 36 -32 26 -3 32 -7 32 -28 l0 -24 213 2 c211 3 212 3 210 25 -2 18 3 22 30 25 27 3 33 7 35 32 6 49 -25 112 -62 130 -19 9 -40 16 -48 16 -7 0 -25 21 -40 46 -15 24 -41 52 -58 62 -19 11 -30 25 -30 39 0 31 10 53 25 53 7 0 24 9 38 20 14 11 35 20 47 20 19 0 21 5 18 53 l-3 52 -161 3 c-88 1 -163 -1 -167 -4z m313 -49 l0 -35 -150 0 -150 0 0 35 0 35 150 0 150 0 0 -35z m-63 -61 c-4 -4 -17 -12 -29 -18 -14 -7 -27 -26 -32 -49 -11 -43 -46 -54 -46 -14 0 28 -26 67 -45 67 -8 0 -17 5 -20 10 -4 6 27 10 86 10 51 0 89 -3 86 -6z m-18 -149 c16 -14 39 -41 51 -60 27 -44 70 -171 70 -207 l0 -28 -191 0 -192 0 7 49 c8 62 39 152 67 198 46 73 131 95 188 48z m-245 -127 c-4 -13 -13 -43 -19 -68 -10 -38 -16 -46 -39 -48 -22 -3 -26 0 -26 23 0 36 25 91 47 104 31 18 45 14 37 -11z m387 12 c25 -14 49 -62 49 -100 0 -28 -3 -31 -26 -28 -22 3 -29 13 -48 71 -24 70 -20 80 25 57z"/>
 <path d="M303 253 c2 -13 -2 -28 -9 -34 -20 -16 -17 -29 6 -29 11 0 25 -11 33 -26 l14 -26 16 26 c10 14 26 26 37 26 24 0 26 13 4 31 -9 7 -13 21 -10 34 5 19 1 21 -45 21 -47 0 -50 -1 -46 -23z m71 -26 c5 -20 -25 -55 -32 -36 -2 5 -10 9 -18 9 -16 0 -19 16 -4 25 5 3 7 12 4 19 -4 10 2 12 20 9 14 -3 27 -14 30 -26z"/>
 </g>

</svg>