<!DOCTYPE svg PUBLIC "-//W3C//DTD SVG 20010904//EN" "http://www.w3.org/TR/2001/REC-SVG-20010904/DTD/svg10.dtd">
<svg version="1.0" xmlns="http://www.w3.org/2000/svg" width="70px" height="70px" viewBox="0 0 700 700" preserveAspectRatio="xMidYMid meet">
<g id="layer101" fill="#e12020" stroke="none">
 <path d="M240 545 c-64 -43 -103 -76 -120 -104 -21 -34 -30 -41 -57 -41 -18 0 -33 -4 -33 -10 0 -5 12 -10 28 -10 26 0 27 -2 24 -37 -6 -76 51 -141 132 -150 l46 -6 0 -58 c0 -33 4 -59 9 -59 9 0 14 17 27 95 3 22 18 52 32 67 l25 27 19 -24 c11 -14 22 -41 25 -60 6 -39 23 -58 23 -26 0 38 9 47 45 43 50 -6 119 30 139 72 9 19 16 52 16 75 0 37 2 41 25 41 14 0 25 5 25 10 0 6 -12 10 -26 10 -19 0 -39 15 -72 51 -47 53 -198 160 -223 158 -8 0 -57 -29 -109 -64z m203 -9 c77 -50 137 -105 137 -127 0 -5 -21 -9 -47 -9 -43 1 -51 4 -73 35 -14 19 -28 35 -32 35 -3 0 -10 -50 -13 -110 -4 -61 -9 -109 -10 -108 -2 2 -13 57 -25 123 -24 138 -29 155 -39 155 -4 0 -18 -68 -30 -150 -23 -150 -41 -201 -41 -117 0 24 -3 65 -6 91 l-7 46 -68 0 c-38 0 -69 4 -69 9 0 22 52 69 134 122 50 33 94 59 98 59 4 0 45 -24 91 -54z m-79 -177 c19 -103 19 -109 2 -86 -13 17 -15 16 -36 -10 l-23 -28 7 45 c14 92 28 171 31 168 2 -2 10 -42 19 -89z m177 21 l59 0 0 -39 c0 -22 -4 -51 -10 -65 -14 -38 -67 -67 -115 -64 l-40 3 -3 55 c-2 30 -1 79 3 108 l7 53 19 -26 c18 -22 28 -25 80 -25z m-297 -31 c3 -17 6 -56 6 -85 0 -54 0 -54 -30 -54 -43 0 -87 25 -105 60 -15 30 -20 91 -8 103 3 4 34 7 68 7 62 0 63 0 69 -31z m33 -166 c-4 -3 -7 0 -7 7 0 7 3 10 7 7 3 -4 3 -10 0 -14z"/>
 </g>

</svg>