<!DOCTYPE svg PUBLIC "-//W3C//DTD SVG 20010904//EN" "http://www.w3.org/TR/2001/REC-SVG-20010904/DTD/svg10.dtd">
<svg version="1.0" xmlns="http://www.w3.org/2000/svg" width="70px" height="70px" viewBox="0 0 700 700" preserveAspectRatio="xMidYMid meet">
<g id="layer101" fill="#e12323" stroke="none">
 <path d="M402 577 c-34 -10 -344 -260 -375 -302 -18 -24 -18 -26 2 -54 34 -47 132 -132 149 -129 9 2 24 26 34 53 10 28 31 62 48 78 l31 27 27 -20 c16 -12 35 -18 44 -15 9 4 35 37 56 73 54 91 96 128 157 143 28 6 55 13 62 15 18 4 41 45 45 79 3 29 1 30 -57 47 -67 18 -173 21 -223 5z m242 -27 c51 -19 17 -30 -59 -18 -140 21 -185 0 -442 -216 -56 -47 -105 -81 -109 -75 -3 5 0 16 6 24 29 35 344 288 368 296 35 11 198 4 236 -11z m4 -49 c12 -7 -3 -8 -48 -4 -81 7 -175 -15 -234 -57 -65 -44 -156 -149 -196 -224 -19 -36 -39 -66 -44 -66 -4 0 -5 8 -1 17 23 55 34 91 35 115 0 21 19 41 93 100 119 96 145 114 187 127 40 12 182 6 208 -8z m-8 -29 c0 -5 -24 -13 -52 -19 -53 -11 -89 -22 -161 -51 -20 -8 -55 -36 -77 -61 -22 -25 -62 -68 -90 -96 -29 -28 -57 -67 -64 -90 -15 -43 -32 -56 -42 -31 -10 26 75 163 143 232 64 65 123 103 183 115 50 10 160 11 160 1z m-186 -97 c-9 -14 -25 -25 -36 -25 -10 0 -17 -4 -14 -9 3 -5 -2 -12 -11 -15 -15 -6 -15 -8 -3 -16 13 -8 12 -10 -2 -10 -21 0 -24 -16 -5 -23 6 -3 3 -6 -8 -6 -11 0 -26 3 -34 8 -12 8 -10 16 13 45 23 31 86 74 109 76 4 0 0 -11 -9 -25z m-324 -144 c-13 -50 -27 -59 -52 -34 -19 19 -19 20 19 57 42 41 49 36 33 -23z m232 7 c-10 -10 -44 0 -37 12 3 5 14 6 26 3 12 -3 17 -9 11 -15z"/>
 </g>

</svg>